# xmcd
#
# Track frame offsets: 
#        150
#        834
#        16265
#        34900
#        47951
#        51479
#        73137
#        84829
#        117390
#        132450
#        156678
#        173130
#        194718
#        208043
#
# Disc length: 2930 seconds
#
# Revision: 0
# Processed by: cddbd v1.5PL3 Copyright (c) Steve Scherf et al.
# Submitted via: ExactAudioCopy v0.95a3
#
DISCID=cb0b700e
DTITLE=TRAVELIN' BAND (The) - Texas Sky
DYEAR=1999
DGENRE=Rock/Blues
TTITLE0=Ready?
TTITLE1=Tee Ni Nee Ni Nu
TTITLE2=Kiddeo
TTITLE3=Texas Sky
TTITLE4=Abobo!
TTITLE5=Hoodoo Ball
TTITLE6=Sneakin' Around
TTITLE7=Glamour Girl
TTITLE8=Stop The Clock
TTITLE9=Before You Accuse Me
TTITLE10=No Love In My Heart
TTITLE11=Let Me Love You Babe
TTITLE12=Sen-Sa-Shun
TTITLE13=Good Lover
EXTD=
EXTT0=
EXTT1=
EXTT2=
EXTT3=
EXTT4=
EXTT5=
EXTT6=
EXTT7=
EXTT8=
EXTT9=
EXTT10=
EXTT11=
EXTT12=
EXTT13=
PLAYORDER=
